<svg xmlns="http://www.w3.org/2000/svg" width="1200" height="630" viewBox="0 0 1200 630">
  <defs>
    <linearGradient id="bg" x1="0" y1="0" x2="1" y2="1">
      <stop offset="0%" stop-color="#1b1a2e"/>
      <stop offset="100%" stop-color="#10131d"/>
    </linearGradient>
  </defs>
  <rect width="1200" height="630" fill="url(#bg)"/>
  <rect x="0" y="0" width="14" height="630" fill="#5c7cfa"/>
  <svg x="860" y="190" width="256" height="256" viewBox="0 0 256 256"><line x1="44" y1="64" x2="150" y2="34" stroke="#5c7cfa" stroke-width="6" stroke-linecap="round" opacity="0.55"/><line x1="44" y1="64" x2="92" y2="150" stroke="#5c7cfa" stroke-width="6" stroke-linecap="round" opacity="0.55"/><line x1="150" y1="34" x2="210" y2="118" stroke="#5c7cfa" stroke-width="6" stroke-linecap="round" opacity="0.55"/><line x1="92" y1="150" x2="210" y2="118" stroke="#5c7cfa" stroke-width="6" stroke-linecap="round" opacity="0.55"/><line x1="92" y1="150" x2="176" y2="212" stroke="#5c7cfa" stroke-width="6" stroke-linecap="round" opacity="0.55"/><line x1="210" y1="118" x2="176" y2="212" stroke="#5c7cfa" stroke-width="6" stroke-linecap="round" opacity="0.55"/><circle cx="44" cy="64" r="20" fill="#5c7cfa"/><circle cx="44" cy="64" r="20" fill="none" stroke="#eef1ff" stroke-width="4"/><circle cx="150" cy="34" r="20" fill="#5c7cfa"/><circle cx="150" cy="34" r="20" fill="none" stroke="#eef1ff" stroke-width="4"/><circle cx="210" cy="118" r="20" fill="#5c7cfa"/><circle cx="210" cy="118" r="20" fill="none" stroke="#eef1ff" stroke-width="4"/><circle cx="92" cy="150" r="20" fill="#5c7cfa"/><circle cx="92" cy="150" r="20" fill="none" stroke="#eef1ff" stroke-width="4"/><circle cx="210" cy="118" r="20" fill="#5c7cfa"/><circle cx="210" cy="118" r="20" fill="none" stroke="#eef1ff" stroke-width="4"/><circle cx="176" cy="212" r="20" fill="#5c7cfa"/><circle cx="176" cy="212" r="20" fill="none" stroke="#eef1ff" stroke-width="4"/></svg>
  <text x="90" y="150" font-family="'Pretendard','Noto Sans KR','Apple SD Gothic Neo','Malgun Gothic',sans-serif" font-size="26" font-weight="700" letter-spacing="3" fill="#91a7ff">ALGORITHM · 알고리즘 A-Z</text>
  <text font-family="'Pretendard','Noto Sans KR','Apple SD Gothic Neo','Malgun Gothic',sans-serif" font-size="60" font-weight="800" fill="#f2f3f4"><tspan x="90" y="280">선형 시간 정렬</tspan><tspan x="90" y="360">계수 · 기수 · 버킷</tspan></text>
  <text x="90" y="560" font-family="'Pretendard','Noto Sans KR','Apple SD Gothic Neo','Malgun Gothic',sans-serif" font-size="28" font-weight="500" fill="#8b96a0">쿠오 · Kuo의 삶을 담은 블로그</text>
</svg>