<svg xmlns="http://www.w3.org/2000/svg" width="1200" height="630" viewBox="0 0 1200 630">
  <defs>
    <linearGradient id="bg" x1="0" y1="0" x2="1" y2="1">
      <stop offset="0%" stop-color="#0d1b2e"/>
      <stop offset="100%" stop-color="#10161d"/>
    </linearGradient>
  </defs>
  <rect width="1200" height="630" fill="url(#bg)"/>
  <rect x="0" y="0" width="14" height="630" fill="#1971c2"/>
  <g transform="translate(870,175)" fill="none" stroke="#4dabf7" stroke-width="3" stroke-opacity="0.55">
    <line x1="120" y1="95" x2="40" y2="30"/>
    <line x1="120" y1="95" x2="200" y2="20"/>
    <line x1="120" y1="95" x2="245" y2="125"/>
    <line x1="120" y1="95" x2="25" y2="160"/>
    <line x1="120" y1="95" x2="155" y2="215"/>
    <line x1="200" y1="20" x2="245" y2="125"/>
    <line x1="25" y1="160" x2="155" y2="215"/>
    <line x1="155" y1="215" x2="250" y2="210"/>
  </g>
  <g transform="translate(870,175)">
    <circle cx="40"  cy="30"  r="13" fill="#1971c2" stroke="#cfe3fb" stroke-width="2"/>
    <circle cx="200" cy="20"  r="13" fill="#1971c2" stroke="#cfe3fb" stroke-width="2"/>
    <circle cx="245" cy="125" r="13" fill="#4dabf7" stroke="#cfe3fb" stroke-width="2"/>
    <circle cx="25"  cy="160" r="13" fill="#1971c2" stroke="#cfe3fb" stroke-width="2"/>
    <circle cx="155" cy="215" r="13" fill="#1971c2" stroke="#cfe3fb" stroke-width="2"/>
    <circle cx="250" cy="210" r="11" fill="#4dabf7" stroke="#cfe3fb" stroke-width="2"/>
    <circle cx="120" cy="95"  r="22" fill="#ffffff" stroke="#4dabf7" stroke-width="3"/>
  </g>
  <text x="90" y="150" font-family="'Pretendard','Noto Sans KR','Apple SD Gothic Neo','Malgun Gothic',sans-serif" font-size="26" font-weight="700" letter-spacing="3" fill="#6ea8fe">NETWORK · 네트워크 A-Z</text>
  <text font-family="'Pretendard','Noto Sans KR','Apple SD Gothic Neo','Malgun Gothic',sans-serif" font-size="60" font-weight="800" fill="#f2f3f4"><tspan x="90" y="290">이더넷·MAC·스위치</tspan></text>
  <text x="90" y="560" font-family="'Pretendard','Noto Sans KR','Apple SD Gothic Neo','Malgun Gothic',sans-serif" font-size="28" font-weight="500" fill="#8b96a0">쿠오 · Kuo의 삶을 담은 블로그</text>
</svg>