<svg xmlns="http://www.w3.org/2000/svg" width="1200" height="630" viewBox="0 0 1200 630">
  <defs>
    <linearGradient id="bg" x1="0" y1="0" x2="1" y2="1">
      <stop offset="0%" stop-color="#13202e"/>
      <stop offset="100%" stop-color="#0f1418"/>
    </linearGradient>
  </defs>
  <rect width="1200" height="630" fill="url(#bg)"/>
  <rect x="0" y="0" width="14" height="630" fill="#4dabf7"/>
  <text x="1150" y="540" font-family="'Pretendard','Noto Sans KR','Apple SD Gothic Neo','Malgun Gothic',sans-serif" font-size="240" font-weight="800" fill="#4dabf7" fill-opacity="0.07" text-anchor="end">05</text>
  
  <svg x="880" y="175" width="250" height="250" viewBox="0 0 256 256" preserveAspectRatio="xMidYMid">
    <rect x="84" y="34" width="14" height="22" rx="3" fill="#4dabf7"/><rect x="84" y="200" width="14" height="22" rx="3" fill="#4dabf7"/><rect x="34" y="84" width="22" height="14" rx="3" fill="#4dabf7"/><rect x="200" y="84" width="22" height="14" rx="3" fill="#4dabf7"/><rect x="114" y="34" width="14" height="22" rx="3" fill="#4dabf7"/><rect x="114" y="200" width="14" height="22" rx="3" fill="#4dabf7"/><rect x="34" y="114" width="22" height="14" rx="3" fill="#4dabf7"/><rect x="200" y="114" width="22" height="14" rx="3" fill="#4dabf7"/><rect x="144" y="34" width="14" height="22" rx="3" fill="#4dabf7"/><rect x="144" y="200" width="14" height="22" rx="3" fill="#4dabf7"/><rect x="34" y="144" width="22" height="14" rx="3" fill="#4dabf7"/><rect x="200" y="144" width="22" height="14" rx="3" fill="#4dabf7"/><rect x="174" y="34" width="14" height="22" rx="3" fill="#4dabf7"/><rect x="174" y="200" width="14" height="22" rx="3" fill="#4dabf7"/><rect x="34" y="174" width="22" height="14" rx="3" fill="#4dabf7"/><rect x="200" y="174" width="22" height="14" rx="3" fill="#4dabf7"/>
    <rect x="56" y="56" width="144" height="144" rx="20" fill="none" stroke="#4dabf7" stroke-width="8"/>
    <rect x="92" y="92" width="72" height="72" rx="10" fill="#4dabf7"/>
    <text x="128" y="148" font-family="'Pretendard','Noto Sans KR','Apple SD Gothic Neo','Malgun Gothic',sans-serif" font-size="42" font-weight="800" fill="#0f1418" text-anchor="middle">OS</text>
  </svg>
  <text x="90" y="150" font-family="'Pretendard','Noto Sans KR','Apple SD Gothic Neo','Malgun Gothic',sans-serif" font-size="26" font-weight="700" letter-spacing="3" fill="#74c0fc">OS · 운영체제 A-Z · EP.05</text>
  <text font-family="'Pretendard','Noto Sans KR','Apple SD Gothic Neo','Malgun Gothic',sans-serif" font-size="64" font-weight="800" fill="#f2f3f4"><tspan x="90" y="345">CPU 스케줄링</tspan></text>
  <text x="90" y="560" font-family="'Pretendard','Noto Sans KR','Apple SD Gothic Neo','Malgun Gothic',sans-serif" font-size="28" font-weight="500" fill="#8b96a0">쿠오 · Kuo의 삶을 담은 블로그</text>
</svg>