<svg xmlns="http://www.w3.org/2000/svg" width="1200" height="630" viewBox="0 0 1200 630">
  <defs>
    <linearGradient id="bg" x1="0" y1="0" x2="1" y2="1">
      <stop offset="0%" stop-color="#1b2733"/>
      <stop offset="100%" stop-color="#11171d"/>
    </linearGradient>
  </defs>
  <rect width="1200" height="630" fill="url(#bg)"/>
  <rect x="0" y="0" width="14" height="630" fill="#336791"/>
  <!-- PostgreSQL 코끼리(Slonik) 실루엣 워터마크 -->
  <g transform="translate(815,300) scale(0.95)" fill="#336791" opacity="0.16">
    <rect x="80"  y="170" width="36" height="78" rx="16"/>
    <rect x="125" y="174" width="36" height="74" rx="16"/>
    <rect x="205" y="172" width="36" height="76" rx="16"/>
    <rect x="248" y="168" width="36" height="80" rx="16"/>
    <ellipse cx="180" cy="120" rx="125" ry="88"/>
    <circle cx="78" cy="100" r="74"/>
    <ellipse cx="104" cy="84" rx="44" ry="54"/>
    <path d="M 24,96 C -18,118 -8,212 36,214 C 58,215 60,184 46,180 C 30,174 36,128 64,128 Z"/>
    <path d="M 300,108 C 332,118 332,162 316,180 L 306,170 C 320,150 312,130 294,124 Z"/>
  </g>
  <text x="90" y="150" font-family="'Pretendard','Noto Sans KR','Apple SD Gothic Neo','Malgun Gothic',sans-serif" font-size="26" font-weight="700"
        letter-spacing="3" fill="#5b9bd5">DATABASE · POSTGRESQL</text>
  <g font-family="'Pretendard','Noto Sans KR','Apple SD Gothic Neo','Malgun Gothic',sans-serif" font-size="64" font-weight="800" fill="#f2f3f4">
    <tspan x="90" y="273">주 단위 데이터 분석,</tspan><tspan x="90" y="357">DATE_TRUNC로 해결하기</tspan>
  </g>
  <text x="90" y="560" font-family="'Pretendard','Noto Sans KR','Apple SD Gothic Neo','Malgun Gothic',sans-serif" font-size="28" font-weight="500"
        fill="#8b96a0">컴도리돌이 · 백엔드 개발 기록</text>
</svg>
